<?xml version="1.0" encoding="UTF-8" standalone="no"?><!DOCTYPE svg PUBLIC "-//W3C//DTD SVG 1.1//EN" "http://www.w3.org/Graphics/SVG/1.1/DTD/svg11.dtd"><svg width="100%" height="100%" viewBox="0 0 400 300" version="1.1" xmlns="http://www.w3.org/2000/svg" xmlns:xlink="http://www.w3.org/1999/xlink" xml:space="preserve" xmlns:serif="http://www.serif.com/" style="fill-rule:evenodd;clip-rule:evenodd;stroke-linejoin:round;stroke-miterlimit:2;"><rect x="0" y="0" width="400" height="300" style="fill:#007cdb;"/><path d="M189.688,196.406c-0.001,0 -20.196,-89.375 -56.29,-89.375c-64.882,0 -66.601,119.453 -22.773,158.985c13.32,12.031 69.18,12.031 186.914,0c12.461,-1.289 7.734,-13.321 -9.883,-21.485c-11.601,-5.586 -67.89,-15.898 -97.969,-48.125" style="fill:#94d82a;fill-rule:nonzero;"/><g><ellipse cx="181.953" cy="183.516" rx="16.758" ry="28.789" style="fill:#769e2a;"/><ellipse cx="197.852" cy="241.953" rx="10.313" ry="11.602" style="fill:#769e2a;"/><ellipse cx="159.18" cy="220.898" rx="7.734" ry="13.32" style="fill:#769e2a;"/><ellipse cx="149.297" cy="168.906" rx="6.016" ry="9.023" style="fill:#769e2a;"/></g><path d="M103.75,124.648c0,5.157 1.719,9.883 4.727,12.461c1.289,1.289 3.007,2.149 4.726,3.008c0.859,0.43 1.719,0.43 2.578,0.43l3.008,0c3.867,0 7.734,-1.289 10.742,-3.867c3.008,-2.578 5.156,-6.875 6.875,-12.032c1.719,5.157 1.719,11.172 -1.719,16.329c-3.437,5.156 -9.882,8.164 -15.898,8.164l-2.148,0c-0.86,0 -1.289,0 -2.149,-0.43c-1.719,-0.43 -3.008,-0.859 -4.726,-1.289c-3.008,-1.289 -5.586,-3.438 -6.875,-6.445c-3.008,-5.157 -2.579,-12.032 0.859,-16.329" style="fill:#3e4347;fill-rule:nonzero;"/><path d="M315.586,194.258c14.609,-18.477 16.758,-48.125 8.594,-66.172c-12.032,-26.641 -35.664,-30.508 -35.664,-30.508c-31.797,-51.133 -119.454,-51.133 -146.094,11.602c22.773,13.32 35.664,50.703 42.969,70.898c6.875,27.07 20.195,51.563 42.109,58.008c9.453,2.578 11.172,-7.305 11.172,-7.305c6.015,8.594 18.476,14.61 29.648,11.602c41.68,-12.031 47.266,-48.125 47.266,-48.125" style="fill:#e08828;fill-rule:nonzero;"/><g><path d="M124.805,116.484l-11.172,3.868l-10.742,-29.649l11.171,-3.867l10.743,29.648Zm24.922,11.172l-10.743,-4.726l13.321,-28.789l10.742,5.156l-13.32,28.359Z" style="fill:#94d82a;fill-rule:nonzero;"/><path d="M144.141,67.07c0,20.196 -16.328,36.524 -36.524,36.524c-20.195,0 -36.523,-16.328 -36.523,-36.524c0,-20.195 16.328,-36.523 36.523,-36.523c20.196,0.43 36.524,16.758 36.524,36.523" style="fill:#94d82a;fill-rule:nonzero;"/></g><path d="M128.672,68.359c0,15.899 -12.461,28.36 -27.5,28.36c-15.469,0 -27.5,-12.891 -27.5,-28.36c0,-15.898 12.461,-28.359 27.5,-28.359c15.039,0 27.5,12.891 27.5,28.359" style="fill:#fcfcfa;fill-rule:nonzero;"/><path d="M125.234,68.359c0,10.743 -8.593,19.766 -18.906,19.766c-10.312,0 -18.906,-8.594 -18.906,-19.766c0,-10.742 8.594,-19.765 18.906,-19.765c10.742,0.429 18.906,9.023 18.906,19.765" style="fill:#3e4347;fill-rule:nonzero;"/><g><path d="M239.102,230.352c-8.165,-12.461 -14.18,-26.641 -17.188,-41.25c-3.008,-15.04 -3.008,-30.508 0.43,-45.547c3.437,-15.039 10.742,-29.649 22.773,-39.961c6.016,-5.157 13.32,-8.594 21.055,-9.883c7.734,-1.289 15.469,0 22.344,3.437c-7.305,-1.718 -14.61,-1.718 -21.485,0.43c-6.875,2.149 -12.461,6.016 -17.617,10.742c-4.727,4.727 -9.023,10.742 -12.031,17.188c-3.008,6.445 -5.586,12.89 -6.875,19.765c-3.438,13.75 -3.867,28.36 -2.149,42.539c2.149,14.61 5.586,28.79 10.743,42.54" style="fill:#93603b;fill-rule:nonzero;"/><path d="M315.586,194.258c-3.008,3.867 -6.875,6.875 -11.172,9.453c-4.297,2.578 -9.023,4.297 -14.609,4.726c-5.157,0.43 -10.743,-1.289 -15.469,-4.296c-4.727,-3.008 -8.164,-6.875 -11.172,-11.172c-6.016,-8.594 -8.164,-20.196 -6.875,-30.508c1.289,-10.313 6.016,-20.625 13.32,-28.359c3.868,-3.868 8.164,-7.305 13.75,-9.024c5.157,-2.148 11.172,-2.578 16.758,-0.859c6.016,1.718 10.742,6.015 13.321,10.742c2.578,5.156 3.867,10.742 3.437,16.328c-0.43,5.586 -2.148,11.172 -6.445,15.039c-3.868,4.297 -10.743,6.445 -16.328,3.438c-5.586,-3.008 -8.165,-9.024 -6.875,-14.61c0.859,-3.008 2.578,-5.156 5.156,-6.445c1.289,-0.43 3.008,-0.859 4.297,0c1.289,0.43 2.148,1.289 3.007,2.578c-4.296,-3.867 -8.593,1.289 -9.023,4.727c-0.43,3.867 2.148,8.164 5.586,9.453c1.719,0.859 3.437,0.429 5.586,0c1.719,-0.43 3.437,-1.719 4.726,-3.008c2.579,-3.008 3.868,-7.305 3.868,-11.602c0,-4.297 -0.86,-8.593 -3.008,-12.031c-2.149,-3.437 -5.156,-6.016 -9.024,-6.875c-7.734,-2.148 -16.328,1.719 -22.343,8.164c-12.032,12.461 -15.899,33.945 -6.875,49.414c4.297,7.735 11.601,14.18 20.625,14.61c9.023,0.429 18.476,-4.297 25.781,-9.883" style="fill:#93603b;fill-rule:nonzero;"/></g><path d="M209.883,67.07c0,23.203 -18.906,41.68 -42.11,41.68c-23.203,0 -42.109,-18.906 -42.109,-41.68c0,-23.203 18.906,-41.679 42.109,-41.679c23.204,0 42.11,18.906 42.11,41.679" style="fill:#94d82a;fill-rule:nonzero;"/><ellipse cx="160.039" cy="68.789" rx="31.797" ry="32.656" style="fill:#fcfcfa;"/><path d="M188.398,68.789c0,12.461 -9.882,22.773 -21.914,22.773c-12.031,0.001 -21.914,-10.312 -21.914,-22.773c0,-12.461 9.883,-22.773 21.914,-22.773c12.032,0 21.914,10.312 21.914,22.773" style="fill:#3e4347;fill-rule:nonzero;"/></svg>