<?xml version="1.0" encoding="UTF-8" standalone="no"?><!DOCTYPE svg PUBLIC "-//W3C//DTD SVG 1.1//EN" "http://www.w3.org/Graphics/SVG/1.1/DTD/svg11.dtd">
<svg
    viewBox="0 0 1152 256"
    xmlns="http://www.w3.org/2000/svg"
    fill-rule="evenodd"
    clip-rule="evenodd"
    stroke-linejoin="round"
    stroke-miterlimit="2"
    style="width: 800px; fill: #fff;"
>
    <g>
        <path d="M555.37060995 202.28144183c-12.72545011 2.0715849-36.40070613 4.4391105-51.49368185 4.4391105-39.95199453 0-47.35051204-19.5320862-47.35051204-75.16893786 0-57.41249584 9.17416171-75.46487856 46.46268994-75.46487856 14.50109432 0 39.06417244 2.3675256 52.38150395 4.7350512l1.1837628-26.63466302c-12.72545011-2.959407-36.99258753-7.3985175-58.00437725-7.3985175-60.66784355 0-76.05675996 31.66565492-76.05675996 104.76300788 0 69.25012386 14.2051536 104.4670672 76.05675996 104.4670672 18.94020482 0 43.79922364-3.55128841 57.70843655-6.51069541l-.8878221-27.22654443zM624.91661253 112.31546896h39.06417243V84.79298384h-39.06417243v-9.17416171c0-20.41990832 4.1431698-26.93060373 17.75644201-26.93060373 9.17416171 0 23.67525602.5918814 23.67525602.5918814l.2959407-26.04278162c0-.2959407-21.89961181-3.2553477-31.96159562-3.2553477-30.77783283 0-41.72763874 12.72545011-41.72763874 55.34091095v9.4701024H575.7904563v27.52248513h17.16456061v120.447865h31.96159563v-120.447865zM674.33894784 84.79298384l42.91140154 73.68923436-42.91140154 74.28111576h34.32912123l29.00218863-50.60585974 29.29812932 50.60585974h34.32912123l-44.09516434-75.16893786 44.09516434-72.80141226h-34.32912123l-29.29812932 51.19774114-29.00218863-51.19774114h-34.32912123zM824.38088287 190.14787312h34.62506193v42.61546084h-34.62506193zM896.5907713 232.76333396h32.25753632V129.48002957s23.08337462-10.3579245 50.01397834-15.68485711V81.53763613c-25.15495952 4.7350512-50.30991904 21.01178972-50.30991904 21.01178972V84.79298383h-31.96159563v147.97035013zM1061.42986052 207.90431514c-24.56307812 0-33.44129913-11.83762801-33.73723983-35.51288403h91.74161708l2.0715849-23.08337462c0-46.16674924-20.71584902-67.77042036-62.14754705-67.77042036-40.83981664 0-64.21913196 24.56307812-64.21913196 78.72022627 0 52.08556324 17.16456062 75.76081926 61.55566565 75.76081926 26.04278163 0 59.78002145-6.8066361 59.78002145-6.8066361l-.5918814-23.97119672s-31.07377352 2.6634663-54.45308884 2.6634663zm-34.03318053-60.37190285c.2959407-28.41030723 10.0619838-39.36011314 31.96159563-39.36011314 21.60367111 0 30.48189212 9.76604311 30.48189212 39.36011314H1027.39668z" fill-rule="nonzero"></path></g><g style="fill: #fff;"><path d="M242.956504 146.0804v-.723216l-4.339296-57.85728c-.12113868-1.56702827-.78288132-2.92305827-1.988844-4.06809s-2.59092132-1.717638-4.158492-1.717638h-33.629544c-1.56702827 0-2.95307173.57260627-4.158492 1.717638-1.20542027 1.14503173-1.86824773 2.50106173-1.988844 4.06809l-4.339296 57.85728v.723216c-.12059627 1.446432.361608 2.65239468 1.446432 3.61608 1.084824.96368532 2.350452 1.446432 3.796884 1.446432h44.116176c1.446432 0 2.71206-.48274668 3.796884-1.446432 1.084824-.96368532 1.56757068-2.169648 1.446432-3.61608zm137.230236 84.435468c0 8.79973068-2.77172532 13.198692-8.316984 13.198692H244.58374c1.56757068 0 2.892864-.57314868 3.977688-1.717638 1.084824-1.14448932 1.56757068-2.50051932 1.446432-4.06809l-3.61608-46.285824c-.12113868-1.56757068-.78288132-2.92360068-1.988844-4.06809s-2.59092132-1.717638-4.158492-1.717638h-49.178688c-1.56702827 0-2.95307173.57314868-4.158492 1.717638-1.20542027 1.14448932-1.86824773 2.50051932-1.988844 4.06809l-3.61608 46.285824c-.12059627 1.56757068.361608 2.92360068 1.446432 4.06809s2.41065973 1.717638 3.977688 1.717638H59.440444c-5.54471627 0-8.316984-4.39896132-8.316984-13.198692 0-6.508944 1.56702827-13.50063468 4.700904-20.973264l75.395268-188.759376c.96422773-2.29024427 2.531256-4.27908827 4.700904-5.966532 2.169648-1.68744373 4.45989227-2.531256 6.870552-2.531256h61.292556c-1.56702827 0-2.95307173.57260627-4.158492 1.717638-1.20542027 1.14503173-1.86824773 2.50106173-1.988844 4.06809l-2.71206 34.714368c-.12059627 1.68744373.361608 3.073668 1.446432 4.158492 1.084824 1.084824 2.41065973 1.627236 3.977688 1.627236h30.013464c1.56757068 0 2.892864-.542412 3.977688-1.627236 1.084824-1.084824 1.56757068-2.47104827 1.446432-4.158492l-2.71206-34.714368c-.12113868-1.56702827-.78288132-2.92305827-1.988844-4.06809s-2.59092132-1.717638-4.158492-1.717638h61.292556c2.41011732 0 4.700904.84381227 6.870552 2.531256 2.169648 1.68744373 3.73721868 3.67628773 4.700904 5.966532l75.395268 188.759376c3.13333332 7.47262932 4.700904 14.46432 4.700904 20.973264z" fill-rule="nonzero"></path></g><g><path d="M242.956504 146.0804v-.723216l-4.339296-57.85728c-.12113868-1.56702827-.78288132-2.92305827-1.988844-4.06809s-2.59092132-1.717638-4.158492-1.717638h-33.629544c-1.56702827 0-2.95307173.57260627-4.158492 1.717638-1.20542027 1.14503173-1.86824773 2.50106173-1.988844 4.06809l-4.339296 57.85728v.723216c-.12059627 1.446432.361608 2.65239468 1.446432 3.61608 1.084824.96368532 2.350452 1.446432 3.796884 1.446432h44.116176c1.446432 0 2.71206-.48274668 3.796884-1.446432 1.084824-.96368532 1.56757068-2.169648 1.446432-3.61608zm137.230236 84.435468c0 8.79973068-2.77172532 13.198692-8.316984 13.198692H244.58374c1.56757068 0 2.892864-.57314868 3.977688-1.717638 1.084824-1.14448932 1.56757068-2.50051932 1.446432-4.06809l-3.61608-46.285824c-.12113868-1.56757068-.78288132-2.92360068-1.988844-4.06809s-2.59092132-1.717638-4.158492-1.717638h-49.178688c-1.56702827 0-2.95307173.57314868-4.158492 1.717638-1.20542027 1.14448932-1.86824773 2.50051932-1.988844 4.06809l-3.61608 46.285824c-.12059627 1.56757068.361608 2.92360068 1.446432 4.06809s2.41065973 1.717638 3.977688 1.717638H59.440444c-5.54471627 0-8.316984-4.39896132-8.316984-13.198692 0-6.508944 1.56702827-13.50063468 4.700904-20.973264l75.395268-188.759376c.96422773-2.29024427 2.531256-4.27908827 4.700904-5.966532 2.169648-1.68744373 4.45989227-2.531256 6.870552-2.531256h61.292556c-1.56702827 0-2.95307173.57260627-4.158492 1.717638-1.20542027 1.14503173-1.86824773 2.50106173-1.988844 4.06809l-2.71206 34.714368c-.12059627 1.68744373.361608 3.073668 1.446432 4.158492 1.084824 1.084824 2.41065973 1.627236 3.977688 1.627236h30.013464c1.56757068 0 2.892864-.542412 3.977688-1.627236 1.084824-1.084824 1.56757068-2.47104827 1.446432-4.158492l-2.71206-34.714368c-.12113868-1.56702827-.78288132-2.92305827-1.988844-4.06809s-2.59092132-1.717638-4.158492-1.717638h61.292556c2.41011732 0 4.700904.84381227 6.870552 2.531256 2.169648 1.68744373 3.73721868 3.67628773 4.700904 5.966532l75.395268 188.759376c3.13333332 7.47262932 4.700904 14.46432 4.700904 20.973264z" fill-rule="nonzero"></path>
    </g>
</svg>
