<svg xmlns="http://www.w3.org/2000/svg" viewBox="0 0 542 622" >
  <g transform="matrix(0.164111, 0, 0, -0.163888, -1721.948853, -1530)" fill="#000000" stroke="none" style="transform-origin: 1971.95px 1780px;" id="object-0">
    <path d="M534 3015 c3 -8 88 -157 189 -332 102 -175 194 -334 204 -353 11 -19
	78 -134 148 -255 70 -121 179 -310 242 -420 64 -110 156 -270 205 -355 50 -85
	169 -293 266 -462 98 -169 180 -308 184 -308 3 0 21 26 39 58 18 31 131 228
	252 437 120 209 273 475 340 590 66 116 151 262 188 325 210 360 619 1073 619
	1081 0 5 -599 9 -1441 9 -1266 0 -1440 -2 -1435 -15z m2536 -191 c0 -3 -55
	-102 -122 -220 l-123 -213 -148 -1 -147 0 23 38 c13 20 38 63 56 95 l33 57
	-212 -2 -211 -3 -48 -90 -49 -90 -161 -3 c-89 -1 -161 -1 -161 2 0 2 20 39 45
	82 25 44 45 85 45 92 0 9 -65 12 -290 12 -159 0 -290 -3 -290 -6 0 -4 55 -102
	122 -218 67 -116 140 -244 162 -283 23 -40 44 -73 47 -73 3 0 24 29 46 64 l42
	65 -38 3 -38 3 49 88 50 87 159 0 c88 0 159 -2 159 -5 0 -3 -20 -43 -45 -88
	-25 -46 -45 -87 -45 -90 0 -4 153 -7 341 -7 292 0 340 -2 336 -14 -3 -8 -47
	-86 -98 -173 -133 -230 -258 -446 -414 -718 -76 -132 -145 -253 -155 -269
	l-18 -29 -15 24 c-28 45 -427 739 -427 744 0 3 65 5 144 5 l144 0 73 -130 c41
	-71 77 -130 80 -130 6 0 259 434 259 445 0 3 -87 5 -194 5 l-195 0 -28 -52
	-28 -53 -155 -2 -155 -3 -60 107 c-33 58 -79 138 -101 177 -131 223 -444 767
	-444 771 0 3 495 5 1100 5 605 0 1100 -3 1100 -6z"></path>
  </g>
</svg>