<svg xmlns="http://www.w3.org/2000/svg" width="1024" height="1024" viewBox="0 0 1024 1024" version="1.1"><path d="M 658.999 8.750 C 658.998 21.306, 657.323 37.217, 654.517 51.316 C 652.239 62.764, 644.588 86.096, 640.520 94 C 630.495 113.478, 609.265 131.896, 568.500 156.481 C 553.363 165.610, 532.419 189.341, 522.958 208.083 C 517.984 217.936, 513.239 230.948, 511.073 240.673 C 508.960 250.157, 507.026 272.573, 507.010 287.759 L 507 297.017 501.750 296.538 C 498.863 296.274, 492.012 295.804, 486.528 295.493 C 470.185 294.568, 457.496 292.439, 393.002 279.804 L 331.500 267.755 316 267.699 C 303.734 267.655, 298.400 268.094, 290.435 269.803 C 247.853 278.940, 216.239 301.150, 195.069 336.803 C 164.344 388.547, 141.581 464.782, 132.305 547 C 129.819 569.037, 129.820 627.951, 132.306 646.334 C 137.149 682.134, 144.747 706.067, 157.468 725.582 C 166.539 739.498, 176.175 747.360, 190.758 752.743 C 203.937 757.607, 230.166 756.704, 254.412 750.551 C 281.298 743.727, 303.075 731.293, 328 708.531 C 356.602 682.412, 375.864 667.406, 394 657.115 C 419.890 642.424, 445.600 633.583, 476.203 628.846 C 496.461 625.711, 526.561 625.715, 546.856 628.855 C 600.541 637.161, 637.684 656.345, 687.307 701.395 C 714.897 726.443, 729.122 736.126, 751.962 745.406 C 773.106 753.998, 810.460 758.463, 826.936 754.369 C 846.837 749.424, 861.397 736.544, 872.004 714.500 C 880.962 695.884, 885.671 679.182, 890.048 650.500 C 892.787 632.555, 893.827 587.941, 892.068 563.798 C 884.704 462.676, 850.394 357.615, 809.708 311.601 C 797.472 297.763, 769.854 280.364, 750.116 274.060 C 741.469 271.298, 725.333 268.272, 715 267.475 C 701.919 266.467, 690.928 268.076, 630 279.922 C 556.774 294.159, 548.931 295.385, 525.597 296.246 L 518.694 296.500 519.352 276.500 C 519.714 265.500, 520.469 253.376, 521.028 249.557 C 522.311 240.813, 527.763 224.413, 532.570 214.840 C 541.894 196.275, 558.156 177.081, 572.129 168.150 C 602.785 148.555, 612.506 141.824, 621.428 134.014 C 634.364 122.690, 638.709 118.083, 644.448 109.601 C 650.805 100.209, 652.935 95.720, 658.498 80 C 665.648 59.793, 669.297 39.770, 670.569 13.750 L 671.241 -0 665.121 -0 L 659 0 658.999 8.750 M 300.500 281.674 C 282.622 283.905, 262.134 291.555, 246.500 301.837 C 238.536 307.075, 222.091 322.581, 215.042 331.500 C 199.421 351.263, 180.695 393.046, 167.535 437.500 C 143.940 517.204, 136.935 607.417, 149.577 668.778 C 152.289 681.946, 157.494 698.087, 161.722 706.447 C 168.737 720.319, 180.620 733.552, 190.506 738.500 L 196.500 741.500 215.500 741.471 C 241.556 741.431, 256.298 738.324, 275.929 728.733 C 292.287 720.741, 300.823 714.381, 326 691.422 C 356.716 663.412, 382.032 646.217, 411 633.690 C 448.940 617.283, 494.504 609.585, 531 613.417 C 578.549 618.408, 614.374 630.709, 650.500 654.448 C 665.687 664.427, 678.775 674.835, 698.978 693 C 722.368 714.029, 731.657 720.842, 747.353 728.478 C 768.127 738.585, 786.945 742.455, 812.340 741.842 C 825.576 741.522, 826.891 741.310, 832.500 738.589 C 840.146 734.880, 852.393 722.701, 857.287 713.939 C 881.134 671.247, 886.332 595.319, 871.490 506.500 C 862.091 450.254, 846.274 400.359, 824.461 358.141 C 815.251 340.317, 808.130 330.261, 796.294 318.366 C 775.848 297.818, 751.472 285.614, 723.520 281.934 C 704.798 279.468, 695.305 280.650, 628 293.825 C 545.955 309.886, 549.175 309.455, 511.500 309.418 C 474.404 309.382, 475.161 309.481, 400.765 294.937 C 331.303 281.357, 328.916 280.973, 315.151 281.150 C 308.743 281.232, 302.150 281.468, 300.500 281.674 M 675 354.115 C 667.570 355.334, 657.559 360.388, 652.446 365.501 C 647.153 370.795, 642.251 380.958, 641.166 388.891 C 638.718 406.797, 647.666 424.819, 662.594 432.045 C 676.251 438.657, 690.103 438.376, 703.395 431.217 C 713.457 425.798, 720.819 415.006, 723.205 402.174 C 725.394 390.403, 721.315 376.184, 713.058 366.803 C 704.656 357.258, 688.556 351.891, 675 354.115 M 298.894 360.114 C 294.301 361.800, 294 363.997, 294 395.892 C 294 423.490, 293.865 425.812, 292.171 427.345 C 290.557 428.805, 286.910 429, 261.139 429 C 227.904 429, 225.569 429.394, 224.510 435.174 C 224.174 437.003, 224.035 455.247, 224.200 475.715 C 224.475 509.861, 224.647 513.078, 226.284 514.715 C 227.907 516.339, 230.889 516.526, 259.252 516.792 C 285.872 517.041, 290.688 517.313, 292.165 518.650 C 293.723 520.059, 293.926 523.349, 294.198 551.574 C 294.473 580.104, 294.661 583.092, 296.286 584.716 C 297.940 586.368, 301.015 586.500, 338 586.500 C 374.986 586.500, 378.060 586.369, 379.714 584.716 C 381.339 583.092, 381.526 580.119, 381.792 551.748 C 382.042 525.033, 382.310 520.315, 383.661 518.822 C 385.085 517.249, 388.275 517.052, 416.584 516.790 C 445.107 516.526, 448.092 516.339, 449.716 514.715 C 451.355 513.075, 451.523 509.835, 451.785 474.757 C 451.984 448.063, 451.730 435.763, 450.941 433.856 C 450.277 432.255, 448.550 430.690, 446.756 430.065 C 444.866 429.406, 432.577 429, 414.506 429 C 387.491 429, 385.186 428.863, 383.655 427.171 C 382.195 425.558, 382 421.922, 382 396.320 C 382 378.243, 381.596 366.138, 380.927 364.222 C 380.211 362.166, 378.834 360.789, 376.778 360.073 C 372.876 358.712, 302.612 358.750, 298.894 360.114 M 672.748 368.427 C 661.811 372.330, 654 383.235, 654 394.602 C 654 402.982, 655.798 407.618, 661.445 413.797 C 667.966 420.932, 672.436 422.950, 681.782 422.978 C 693.209 423.013, 701.488 418.309, 707.041 408.626 C 709.627 404.117, 709.980 402.536, 709.969 395.500 C 709.960 389.921, 709.405 386.288, 708.137 383.495 C 705.783 378.314, 695.982 369.367, 691.208 368.041 C 686.121 366.628, 677.269 366.813, 672.748 368.427 M 309.655 374.829 C 308.190 376.447, 308 380.211, 308 407.606 C 308 433.999, 307.771 438.882, 306.443 440.777 C 304.890 442.995, 304.814 443, 273.098 443 C 243.572 443, 241.192 443.130, 239.655 444.829 C 238.203 446.434, 238 449.903, 238 473.174 C 238 497.592, 238.145 499.821, 239.829 501.345 C 241.448 502.810, 245.227 503, 272.829 503 C 302.667 503, 304.086 503.086, 306 505 C 307.915 506.915, 308 508.333, 308 538.345 C 308 567.442, 308.131 569.809, 309.829 571.345 C 311.434 572.797, 314.903 573, 338.174 573 C 362.592 573, 364.821 572.855, 366.345 571.171 C 367.810 569.552, 368 565.773, 368 538.171 C 368 508.333, 368.086 506.914, 370 505 C 371.915 503.085, 373.333 503, 403.345 503 C 432.442 503, 434.809 502.869, 436.345 501.171 C 437.797 499.566, 438 496.097, 438 472.826 C 438 448.408, 437.855 446.179, 436.171 444.655 C 434.551 443.188, 430.742 443, 402.728 443 C 371.192 443, 371.110 442.994, 369.557 440.777 C 368.229 438.882, 368 433.982, 368 407.432 C 368 378.551, 367.868 376.191, 366.171 374.655 C 364.566 373.203, 361.097 373, 337.826 373 C 313.408 373, 311.179 373.145, 309.655 374.829 M 602.500 428.687 C 585.931 430.941, 573.323 441.091, 567.950 456.500 C 566.250 461.374, 565.925 464.283, 566.220 472 C 566.544 480.505, 566.967 482.297, 570.258 489.104 C 574.448 497.770, 579.153 502.547, 587.720 506.833 C 602.842 514.398, 617.908 513.320, 632.504 503.629 C 640.937 498.030, 647.381 486.216, 648.656 474.020 C 649.929 461.838, 643.867 446.115, 635.031 438.680 C 626.792 431.747, 612.433 427.336, 602.500 428.687 M 750 429.132 C 732.753 432.014, 720.103 444.397, 716.435 461.990 C 714.503 471.254, 715.792 479.942, 720.542 489.685 C 730.443 509.993, 755.501 517.658, 776.743 506.877 C 788.426 500.947, 795.570 490.984, 798.036 477.184 C 800.173 465.226, 795.878 450.405, 787.630 441.276 C 779.392 432.157, 763.189 426.928, 750 429.132 M 598.764 442.996 C 590.493 445.486, 582.034 454.523, 579.987 463.054 C 578.485 469.317, 579.311 477.728, 581.933 482.869 C 584.327 487.562, 591.731 494.443, 596.555 496.458 C 601.328 498.453, 612.954 498.464, 617.705 496.479 C 623.575 494.026, 629.617 488.410, 632.405 482.814 C 635.678 476.247, 636.021 464.844, 633.137 458.495 C 630.752 453.245, 621.354 444.722, 616.272 443.200 C 611.776 441.853, 602.904 441.749, 598.764 442.996 M 747.748 443.427 C 740.536 446, 733.699 452.690, 730.531 460.272 C 728.699 464.657, 728.540 473.734, 730.200 479.272 C 731.722 484.354, 740.245 493.752, 745.495 496.137 C 750.605 498.458, 762.554 498.628, 767.782 496.454 C 772.670 494.421, 780.752 486.528, 783.093 481.500 C 785.276 476.813, 785.611 466.817, 783.794 460.616 C 782.147 455, 772 444.853, 766.384 443.206 C 761.030 441.637, 752.479 441.738, 747.748 443.427 M 675 504.115 C 667.570 505.334, 657.559 510.388, 652.446 515.501 C 640.598 527.349, 637.470 547.723, 645.058 563.622 C 649.040 571.964, 654.789 577.786, 663.075 581.865 C 676.029 588.243, 687.307 588.321, 700.549 582.124 C 709.019 578.160, 715.045 572.381, 718.923 564.505 C 725.134 551.889, 725.323 538.900, 719.475 526.539 C 711.870 510.463, 693.318 501.109, 675 504.115 M 672.748 518.427 C 664.821 521.256, 657.010 529.554, 654.886 537.404 C 653.378 542.974, 654.295 552.708, 656.782 557.529 C 659.506 562.810, 665.465 568.423, 671 570.923 C 676.172 573.260, 685.110 573.646, 691.272 571.800 C 696.354 570.278, 705.752 561.755, 708.137 556.505 C 710.224 551.911, 710.594 541.679, 708.894 535.557 C 707.395 530.158, 696.993 519.850, 691.384 518.206 C 686.030 516.637, 677.479 516.738, 672.748 518.427" stroke="none" fill="#fffcfc" fill-rule="evenodd"/><path d="" stroke="none" fill="#fcfcfc" fill-rule="evenodd"/></svg>