<svg xmlns="http://www.w3.org/2000/svg" version="1.1" viewBox="0 0 323 591"
    style="fill-rule:evenodd;clip-rule:evenodd;stroke-linejoin:round;stroke-miterlimit:2;">
    <g>
      <g>
        <path d="M84.235,451.272l4.813,11.234l0,16.751l-4.813,23.973l148.814,0l-1.604,-28.787l1.604,-23.171l-148.814,0Z"
          style="fill:none;fill-rule:nonzero;" />
        <path d="M7.421,23.973l0.802,-0.803l-0.802,-0.802l0,1.605Z" class="rdr-fill" />
        <path d="M323,6.119l-92.758,29.991l-4.112,12.036l94.664,-30.693l2.206,-11.334Z" class="rdr-fill" />
        <path d="M316.382,40.222l1.504,-7.823l-97.171,31.495l-2.808,8.225l98.475,-31.897Z" class="rdr-fill" />
        <path
          d="M214.297,82.551l-8.423,24.675l-11.232,39.119l-6.016,28.386l96.067,14.344l10.73,-41.928l18.953,-96.995l-100.079,32.399Z"
          class="rdr-fill" />
        <path d="M319.089,0l-76.413,0l-9.627,27.784l86.04,-27.784Z" class="rdr-fill" />
        <path d="M102.686,77.636l-95.767,30.994l-0.301,3.31l0,7.423l95.567,-30.894l0.501,-10.833Z" class="rdr-fill" />
        <path d="M101.182,110.035l0.401,-7.323l-94.965,30.694l0,7.322l94.564,-30.693Z" class="rdr-fill" />
        <path
          d="M248.192,376.043l-5.616,-0.601l17.248,-87.466l-92.257,-13.742l-6.518,30.593l-12.034,67.204l-61.571,0l12.835,-174.43l0,-65.6l0.502,-12.437l-94.163,30.392l0,66.001l-2.507,5.617l0.201,5.216l-2.507,39.52l-1.805,8.024l0.201,21.566l0,296.1l304.749,0l0,-19.158l13.638,-200.008l-49.639,3.209l-20.757,0Zm-15.143,127.187l-148.814,0l4.813,-23.973l0,-16.851l-4.813,-11.234l148.814,0l-1.604,23.17l1.604,28.888Z"
          class="rdr-fill" />
        <path
          d="M102.887,70.213l1.805,-65.499l-95.968,-3.109l0.301,7.122l-0.802,13.641l0,70.414l-0.602,8.225l95.266,-30.794Z"
          class="rdr-fill" />
      </g>
    </g>
</svg>
