<svg version="1.1" id="Layer_1" xmlns="http://www.w3.org/2000/svg" xmlns:xlink="http://www.w3.org/1999/xlink" x="0px" y="0px"
	 viewBox="0 0 60 39" style="enable-background:new 0 0 60 39;" xml:space="preserve">
<style type="text/css">
	.st0{fill:#333333;}
</style>
<path class="st0" d="M46.4,29.8c1.9-3,3-6.6,3-10.4c0-11.2-9.6-20.3-21-19.4C19,0.8,11.3,8.4,10.6,17.9c-0.7,9.2,5,17.3,13.2,20
	c2.9,1,5.8-1.2,5.8-4.2c0-1.9-1.2-3.6-2.9-4.2c-4.5-1.5-7.6-5.9-7.3-10.9c0.4-5.2,4.7-9.5,9.9-9.8c6.2-0.4,11.3,4.5,11.3,10.6
	c0,1.4-0.3,2.7-0.7,3.9l-2.8-2.8c-1.7-1.7-4.5-1.7-6.2,0c-1.7,1.7-1.7,4.5,0,6.2l1.5,1.5l1.2,1.2h0l6.6,6.6h0l1.6,1.6
	c0.9,0.9,2,1.3,3.1,1.3c1.1,0,2.3-0.4,3.1-1.3c1.7-1.7,1.7-4.5,0-6.2L46.4,29.8z"/>
</svg>
