
<svg xmlns="http://www.w3.org/2000/svg" width="45" height="34" fill="none" viewBox="0 0 45 34"><path fill="#FF5A00" d="M28.584 6.896H16.416v21.288h12.168V6.896Z"/><path fill="#EB001B" d="M17.189 17.54c0-4.325 2.086-8.162 5.292-10.644A14.058 14.058 0 0 0 13.906 4C6.219 4 0 10.055 0 17.54c0 7.484 6.219 13.54 13.906 13.54a14.06 14.06 0 0 0 8.575-2.896c-3.206-2.445-5.292-6.319-5.292-10.644Z"/><path fill="#F79E1B" d="M45 17.54c0 7.484-6.219 13.54-13.905 13.54-3.245 0-6.22-1.091-8.575-2.896 3.244-2.483 5.291-6.319 5.291-10.644S25.726 9.378 22.52 6.896A14.058 14.058 0 0 1 31.095 4C38.78 4 45 10.093 45 17.54Z"/></svg>