
<svg xmlns="http://www.w3.org/2000/svg" width="60" height="34" fill="none" viewBox="0 0 60 34"><rect width="60" height="34" fill="#fff" rx="5"/><path fill="#1434CB" d="M37.565 12.31a6.925 6.925 0 0 0-2.418-.418c-2.667 0-4.55 1.343-4.564 3.271-.016 1.417 1.339 2.215 2.364 2.689 1.051.486 1.403.793 1.4 1.228-.007.662-.84.962-1.615.962-1.065 0-1.647-.149-2.542-.52l-.332-.155-.378 2.22c.648.27 1.817.501 3.023.521 2.835 0 4.689-1.335 4.71-3.386.024-1.132-.71-1.987-2.253-2.694-.938-.458-1.52-.765-1.52-1.23 0-.411.498-.851 1.54-.851a4.917 4.917 0 0 1 2.022.381l.25.112.378-2.145-.065.015Zm6.92-.238h-2.083c-.649 0-1.137.178-1.42.821l-4.007 9.077h2.835l.567-1.488 3.46.003c.081.348.331 1.485.331 1.485h2.5l-2.183-9.898Zm-17.737-.084h2.702l-1.69 9.904h-2.698l1.686-9.907v.003Zm-6.858 5.459.28 1.375 2.64-6.75h2.862l-4.252 9.885h-2.855l-2.333-8.37a.564.564 0 0 0-.249-.332 11.585 11.585 0 0 0-2.653-.982l.037-.208h4.348c.59.023 1.065.208 1.223.838l.95 4.549.002-.005Zm21.262 1.01 1.076-2.77c-.013.03.222-.572.359-.944l.185.855.625 2.857H41.15l.002.002Z"/></svg>